{"title":"Le Quattro Volte -The Four Times 2010","uid":14053095,"size":1477453130,"categoryP":"video","categoryS":"movies","magnet":"?xt=urn:btih:3c9c4b1d5b39a1189f36d4a4251001bc32b4193d&amp;dn=Le+Quattro+Volte+-The+Four+Times+2010&amp;tr=udp%3A%2F%2Ftracker.leechers-paradise.org%3A6969&amp;tr=udp%3A%2F%2Fzer0day.ch%3A1337&amp;tr=udp%3A%2F%2Fopen.demonii.com%3A1337&amp;tr=udp%3A%2F%2Ftracker.coppersurfer.tk%3A6969&amp;tr=udp%3A%2F%2Fexodus.desync.com%3A6969","seeders":0,"leechers":1,"uploader":null,"files":2,"time":1459076179,"description":"General\r\nComplete name               : I:Disk EFILMILe Quattro Volte -The Four Times 2010The four times 2010.avi\r\nFormat                      : AVI\r\nFormat/Info                 : Audio Video Interleave\r\nFile size                   : 1.30 GiB\r\nDuration                    : 1h 28mn\r\nOverall bit rate            : 2 111 Kbps\r\nMovie name                  : the.four.times.2010.limited.720p.bluray.x264-nodlabs\r\nWriting application         : Lavf51.10.0\r\nWriting library             : VirtualDub build 35491/release\r\n\r\nVideo\r\nID                          : 0\r\nFormat                      : MPEG-4 Visual\r\nFormat profile              : Advanced   \r\nFormat settings, BVOP       : 2\r\nFormat settings, QPel       : No\r\nFormat settings, GMC        : No warppoints\r\nFormat settings, Matrix     : Default (H.263)\r\nMuxing mode                 : Packed bitstream\r\nCodec ID                    : XVID\r\nCodec ID/Hint               : XviD\r\nDuration                    : 1h 28mn\r\nBit rate                    : 1 973 Kbps\r\nWidth                       : 1 280 pixels\r\nHeight                      : 688 pixels\r\nDisplay aspect ratio        : 1.85:1\r\nFrame rate                  : 23.976 fps\r\nColor space                 : YUV\r\nChroma subsampling          : 4:2:0\r\nBit depth                   : 8 bits\r\nScan type                   : Progressive\r\nCompression mode            : Lossy\r\nBits/(Pixel*Frame)          : 0.093\r\nStream size                 : 1.21 GiB (93%)\r\nWriting library             : XviD 1.2.0.dev47 (UTC 2006-11-01)\r\n\r\nAudio\r\nID                          : 1\r\nFormat                      : MPEG Audio\r\nFormat version              : Version 1\r\nFormat profile              : Layer 3\r\nMode                        : Joint stereo\r\nCodec ID                    : 55\r\nCodec ID/Hint               : MP3\r\nDuration                    : 1h 28mn\r\nBit rate mode               : Constant\r\nBit rate                    : 128 Kbps\r\nChannel(s)                  : 2 channels\r\nSampling rate               : 48.0 KHz\r\nCompression mode            : Lossy\r\nStream size                 : 80.6 MiB (6%)\r\nAlignment                   : Split accross interleaves\r\nInterleave, duration        : 42 ms (1.00 video frame)\r\nInterleave, preload duratio : 500 ms","torrent":{"xt":"urn:btih:3c9c4b1d5b39a1189f36d4a4251001bc32b4193d","amp;dn":"Le+Quattro+Volte+-The+Four+Times+2010","amp;tr":["udp%3A%2F%2Ftracker.leechers-paradise.org%3A6969","udp%3A%2F%2Fzer0day.ch%3A1337","udp%3A%2F%2Fopen.demonii.com%3A1337","udp%3A%2F%2Ftracker.coppersurfer.tk%3A6969","udp%3A%2F%2Fexodus.desync.com%3A6969"],"infoHash":"3c9c4b1d5b39a1189f36d4a4251001bc32b4193d","infoHashBuffer":{"type":"Buffer","data":[60,156,75,29,91,57,161,24,159,54,212,164,37,16,1,188,50,180,25,61]},"announce":[],"urlList":[]}}